# Blender v2.77 (sub 0) OBJ File: 'room.blend'
# www.blender.org
mtllib room.mtl
o Cube.001_Cube.002
v 2.978930 -4.000000 -0.890837
v 2.978930 -2.000000 -0.890837
v 2.978930 -4.000000 -0.970837
v 2.978930 -2.000000 -0.970837
v 3.058930 -4.000000 -0.890837
v 3.058930 -2.000000 -0.890837
v 3.058930 -4.000000 -0.970837
v 3.058930 -2.000000 -0.970837
vt 0.0000 0.0000
vt 0.0000 0.0000
vt 0.0000 0.0000
vt 0.0000 0.0000
vt 0.0000 0.0000
vt 0.0000 0.0000
vt 0.0000 0.0000
vt 0.0000 0.0000
vt 1.0000 0.0000
vt 1.0000 1.0000
vt 0.0000 1.0000
vn 0.0000 -1.0000 0.0000
vn 0.0000 1.0000 0.0000
vn -1.0000 0.0000 0.0000
vn 0.0000 0.0000 -1.0000
vn 1.0000 0.0000 0.0000
vn 0.0000 0.0000 1.0000
usemtl Material.001
s off
f 1/1/1 3/2/1 7/3/1 5/4/1
f 6/5/2 8/6/2 4/7/2 2/8/2
usemtl Material.001_Untitled
f 2/8/3 4/9/3 3/10/3 1/11/3
f 4/7/4 8/6/4 7/3/4 3/2/4
f 8/6/5 6/5/5 5/4/5 7/3/5
f 6/5/6 2/8/6 1/1/6 5/4/6
o tableTop_Cube.001
v 2.942113 -2.076308 1.000000
v 2.942113 -1.996308 1.000000
v 2.942113 -2.076308 -1.000000
v 2.942113 -1.996308 -1.000000
v 10.942114 -2.076308 1.000000
v 10.942114 -1.996308 1.000000
v 10.942114 -2.076308 -1.000000
v 10.942114 -1.996308 -1.000000
v 6.929291 -1.996308 -1.000000
v 6.929291 -2.076308 -1.000000
v 6.929291 -1.996308 1.000000
v 6.929291 -2.076308 1.000000
vt 0.0000 0.0000
vt 0.0000 0.0000
vt 0.0000 0.0000
vt 0.0000 0.0000
vt 0.0000 0.0000
vt 0.0000 0.0000
vt 0.0000 0.0000
vt 0.0000 0.0000
vt 0.0001 0.0001
vt 0.6654 0.0001
vt 0.6654 0.9999
vt 0.0001 0.9999
vt 0.3338 0.9999
vt 0.0001 0.9999
vt 0.0001 0.0001
vt 0.3338 0.0001
vt 0.3317 0.9999
vt 0.0001 0.9999
vt 0.0001 0.0001
vt 0.3317 0.0001
vt 0.0000 0.0000
vt -0.0007 1.0011
vt 1.0000 1.0000
vt 1.0007 -0.0011
vt 0.0001 0.0001
vt 0.0050 0.9968
vt 0.9970 0.9942
vt 0.9950 -0.0026
vt 0.3338 0.9999
vt 0.0001 0.9999
vt 0.0001 0.0001
vt 0.3338 0.0001
vt 0.3317 0.9999
vt 0.0001 0.9999
vt 0.0001 0.0001
vt 0.3317 0.0001
vn 1.0000 0.0000 0.0000
vn 0.0000 -1.0000 0.0000
vn -1.0000 0.0000 0.0000
vn 0.0000 0.0000 -1.0000
vn 0.0000 0.0000 1.0000
vn 0.0000 1.0000 0.0000
usemtl None
s off
f 16/12/7 14/13/7 13/14/7 15/15/7
f 20/16/8 18/17/8 15/15/8 13/14/8
f 9/18/8 11/19/8 18/17/8 20/16/8
usemtl None_tabletop.jpeg
f 10/20/9 12/21/9 11/22/9 9/23/9
f 17/24/10 16/25/10 15/26/10 18/27/10
f 19/28/11 10/29/11 9/30/11 20/31/11
f 19/32/12 17/33/12 12/34/12 10/35/12
f 14/36/12 16/37/12 17/38/12 19/39/12
f 14/40/11 19/41/11 20/42/11 13/43/11
f 12/44/10 17/45/10 18/46/10 11/47/10
o Cube
v 11.000000 -4.000000 -3.000000
v 11.000000 -4.000000 3.000000
v -11.000001 -4.000000 3.000000
v -10.999996 -4.000000 -3.000001
v 11.000006 4.000000 -2.999998
v 10.999992 4.000000 3.000002
v -11.000004 4.000000 2.999999
v -10.999999 4.000000 -3.000000
v 11.000000 -4.000000 0.000000
v 0.000002 -4.000000 -3.000000
v 0.000000 -4.000000 3.000000
v -10.999999 -4.000000 -0.000001
v 0.000001 -4.000000 -0.000000
v 0.000003 4.000000 -2.999999
v -0.000006 4.000000 3.000000
vt 0.9695 0.0019
vt 0.9695 0.9974
vt 0.0239 0.9974
vt 0.0239 0.0019
vt 0.4995 0.0001
vt 0.0263 0.9916
vt 0.0263 -0.0039
vt 0.9677 0.0001
vt 0.9677 0.9956
vt 0.4926 0.9999
vt 0.0001 0.0001
vt 0.3745 0.0001
vt 0.3745 0.9999
vt 0.0001 0.9999
vt 0.0001 0.0001
vt 0.3745 0.0001
vt 0.3745 0.9999
vt 0.0001 0.9999
vt 0.0153 0.3499
vt 0.0078 0.0120
vt 0.9873 0.0151
vt 0.9920 0.3499
vt 0.9882 0.0142
vt 0.9886 0.3521
vt 0.0158 0.3513
vt 0.0130 0.0132
vt 0.9868 0.0068
vt 0.9883 0.3095
vt 0.0128 0.3087
vt 0.0131 0.0129
vt 0.0124 0.0107
vt 0.0107 0.2950
vt 0.9878 0.2949
vt 0.9882 0.0118
vn 1.0000 0.0000 0.0000
vn -1.0000 -0.0000 -0.0000
vn 0.0000 1.0000 0.0000
vn 0.0000 -1.0000 0.0000
usemtl Material
s off
f 21/48/13 25/49/13 26/50/13 22/51/13 29/52/13
f 23/53/14 27/54/14 28/55/14 24/56/14 32/57/14
usemtl Material_celing.jpeg
f 34/58/15 28/59/15 27/60/15 35/61/15
f 25/62/15 34/63/15 35/64/15 26/65/15
usemtl Material_parkay.jpeg
f 33/66/16 31/67/16 23/68/16 32/69/16
f 30/70/16 33/71/16 32/72/16 24/73/16
f 21/74/16 29/75/16 33/76/16 30/77/16
f 29/78/16 22/79/16 31/80/16 33/81/16
o Cube.002_Cube.003
v 2.978930 -4.000000 0.997824
v 2.978930 -2.000000 0.997824
v 2.978930 -4.000000 0.917824
v 2.978930 -2.000000 0.917824
v 3.058930 -4.000000 0.997824
v 3.058930 -2.000000 0.997824
v 3.058930 -4.000000 0.917824
v 3.058930 -2.000000 0.917824
vt 0.0000 0.0000
vt 0.0000 0.0000
vt 0.0000 0.0000
vt 0.0000 0.0000
vt 0.0000 0.0000
vt 0.0000 0.0000
vt 0.0000 0.0000
vt 0.0000 0.0000
vt 1.0000 0.0000
vt 1.0000 1.0000
vt 0.0000 1.0000
vn 0.0000 -1.0000 0.0000
vn 0.0000 1.0000 0.0000
vn 0.0000 0.0000 -1.0000
vn -1.0000 0.0000 0.0000
vn 1.0000 0.0000 0.0000
vn 0.0000 0.0000 1.0000
usemtl Material.001
s off
f 36/82/17 38/83/17 42/84/17 40/85/17
f 41/86/18 43/87/18 39/88/18 37/89/18
usemtl Material.001_Untitled.004
f 39/88/19 43/87/19 42/84/19 38/83/19
usemtl Material.001_Untitled.001
f 37/89/20 39/90/20 38/91/20 36/92/20
usemtl Material.001_Untitled.003
f 43/87/21 41/86/21 40/85/21 42/84/21
usemtl Material.001_Untitled.002
f 41/86/22 37/89/22 36/82/22 40/85/22
o Cube.003_Cube.004
v 10.834006 -4.000000 -0.890837
v 10.834006 -2.000000 -0.890837
v 10.834006 -4.000000 -0.970837
v 10.834006 -2.000000 -0.970837
v 10.914006 -4.000000 -0.890837
v 10.914006 -2.000000 -0.890837
v 10.914006 -4.000000 -0.970837
v 10.914006 -2.000000 -0.970837
vt 0.0000 0.0000
vt 0.0000 0.0000
vt 0.0000 0.0000
vt 0.0000 0.0000
vt 0.0000 0.0000
vt 0.0000 0.0000
vt 0.0000 0.0000
vt 0.0000 0.0000
vt 1.0000 0.0000
vt 1.0000 1.0000
vt 0.0000 1.0000
vn 1.0000 0.0000 0.0000
vn 0.0000 -1.0000 0.0000
vn 0.0000 1.0000 0.0000
vn -1.0000 0.0000 0.0000
vn 0.0000 0.0000 -1.0000
vn 0.0000 0.0000 1.0000
usemtl Material.001
s off
f 51/93/23 49/94/23 48/95/23 50/96/23
f 44/97/24 46/98/24 50/96/24 48/95/24
f 49/94/25 51/93/25 47/99/25 45/100/25
usemtl Material.001_Untitled
f 45/100/26 47/101/26 46/102/26 44/103/26
f 47/99/27 51/93/27 50/96/27 46/98/27
f 49/94/28 45/100/28 44/97/28 48/95/28
o Cube.004_Cube.005
v 10.834006 -4.000000 0.997824
v 10.834006 -2.000000 0.997824
v 10.834006 -4.000000 0.917824
v 10.834006 -2.000000 0.917824
v 10.914006 -4.000000 0.997824
v 10.914006 -2.000000 0.997824
v 10.914006 -4.000000 0.917824
v 10.914006 -2.000000 0.917824
vt 0.0000 0.0000
vt 0.0000 0.0000
vt 0.0000 0.0000
vt 0.0000 0.0000
vt 0.0000 0.0000
vt 0.0000 0.0000
vt 0.0000 0.0000
vt 0.0000 0.0000
vt 1.0000 0.0000
vt 1.0000 1.0000
vt 0.0000 1.0000
vn 1.0000 0.0000 0.0000
vn 0.0000 -1.0000 0.0000
vn 0.0000 1.0000 0.0000
vn -1.0000 0.0000 0.0000
vn 0.0000 0.0000 -1.0000
vn 0.0000 0.0000 1.0000
usemtl Material.001
s off
f 59/104/29 57/105/29 56/106/29 58/107/29
f 52/108/30 54/109/30 58/107/30 56/106/30
f 57/105/31 59/104/31 55/110/31 53/111/31
usemtl Material.001_Untitled
f 53/111/32 55/110/32 54/109/32 52/108/32
f 55/110/33 59/112/33 58/113/33 54/114/33
f 57/105/34 53/111/34 52/108/34 56/106/34
o Cube.005_Cube.006
v -10.823588 -4.000000 -0.890837
v -10.823588 -2.000000 -0.890837
v -10.823588 -4.000000 -0.970837
v -10.823588 -2.000000 -0.970837
v -10.743588 -4.000000 -0.890837
v -10.743588 -2.000000 -0.890837
v -10.743588 -4.000000 -0.970837
v -10.743588 -2.000000 -0.970837
vn -1.0000 0.0000 0.0000
vn 0.0000 0.0000 -1.0000
vn 1.0000 0.0000 0.0000
vn 0.0000 0.0000 1.0000
vn 0.0000 -1.0000 0.0000
vn 0.0000 1.0000 0.0000
usemtl Material.001
s off
f 61//35 63//35 62//35 60//35
f 63//36 67//36 66//36 62//36
f 67//37 65//37 64//37 66//37
f 65//38 61//38 60//38 64//38
f 60//39 62//39 66//39 64//39
f 65//40 67//40 63//40 61//40
o Cube.006_Cube.007
v -10.823588 -4.000000 0.997824
v -10.823588 -2.000000 0.997824
v -10.823588 -4.000000 0.917824
v -10.823588 -2.000000 0.917824
v -10.743588 -4.000000 0.997824
v -10.743588 -2.000000 0.997824
v -10.743588 -4.000000 0.917824
v -10.743588 -2.000000 0.917824
vn -1.0000 0.0000 0.0000
vn 0.0000 0.0000 -1.0000
vn 1.0000 0.0000 0.0000
vn 0.0000 0.0000 1.0000
vn 0.0000 -1.0000 0.0000
vn 0.0000 1.0000 0.0000
usemtl Material.001
s off
f 69//41 71//41 70//41 68//41
f 71//42 75//42 74//42 70//42
f 75//43 73//43 72//43 74//43
f 73//44 69//44 68//44 72//44
f 68//45 70//45 74//45 72//45
f 73//46 75//46 71//46 69//46
o Cube.007_Cube.008
v -2.968513 -4.000000 -0.890837
v -2.968513 -2.000000 -0.890837
v -2.968513 -4.000000 -0.970837
v -2.968513 -2.000000 -0.970837
v -2.888513 -4.000000 -0.890837
v -2.888513 -2.000000 -0.890837
v -2.888513 -4.000000 -0.970837
v -2.888513 -2.000000 -0.970837
vn -1.0000 0.0000 0.0000
vn 0.0000 0.0000 -1.0000
vn 1.0000 0.0000 0.0000
vn 0.0000 0.0000 1.0000
vn 0.0000 -1.0000 0.0000
vn 0.0000 1.0000 0.0000
usemtl Material.001
s off
f 77//47 79//47 78//47 76//47
f 79//48 83//48 82//48 78//48
f 83//49 81//49 80//49 82//49
f 81//50 77//50 76//50 80//50
f 76//51 78//51 82//51 80//51
f 81//52 83//52 79//52 77//52
o Cube.008_Cube.009
v -2.968513 -4.000000 0.997824
v -2.968513 -2.000000 0.997824
v -2.968513 -4.000000 0.917824
v -2.968513 -2.000000 0.917824
v -2.888513 -4.000000 0.997824
v -2.888513 -2.000000 0.997824
v -2.888513 -4.000000 0.917824
v -2.888513 -2.000000 0.917824
vn -1.0000 0.0000 0.0000
vn 0.0000 0.0000 -1.0000
vn 1.0000 0.0000 0.0000
vn 0.0000 0.0000 1.0000
vn 0.0000 -1.0000 0.0000
vn 0.0000 1.0000 0.0000
usemtl Material.001
s off
f 85//53 87//53 86//53 84//53
f 87//54 91//54 90//54 86//54
f 91//55 89//55 88//55 90//55
f 89//56 85//56 84//56 88//56
f 84//57 86//57 90//57 88//57
f 89//58 91//58 87//58 85//58
o tableTop.001_Cube.010
v -10.860405 -2.056731 1.000000
v -10.860405 -1.976732 1.000000
v -10.860405 -2.056731 -1.000000
v -10.860405 -1.976732 -1.000000
v -2.860405 -2.056731 1.000000
v -2.860405 -1.976732 1.000000
v -2.860405 -2.056731 -1.000000
v -2.860405 -1.976732 -1.000000
v -6.860405 -1.976732 -1.000000
v -6.860405 -2.056731 -1.000000
v -6.860405 -1.976732 1.000000
v -6.860405 -2.056731 1.000000
vt 0.0000 0.0000
vt 0.0000 0.0000
vt 0.0000 0.0000
vt 0.0000 0.0000
vt 0.0000 0.0000
vt 0.0000 0.0000
vt 0.0000 0.0000
vt 0.0000 0.0000
vt 0.3327 0.9999
vt 0.0001 0.9999
vt 0.0001 0.0001
vt 0.3327 0.0001
vt 0.9971 0.0856
vt 0.0001 0.0856
vt 0.0001 0.0028
vt 0.9971 0.0028
vt 1.0018 0.0950
vt 0.0001 0.0950
vt 0.0001 0.0001
vt 1.0018 0.0001
vt 0.0058 0.9836
vt 0.0051 0.0044
vt 0.9913 0.0033
vt 0.9949 0.9825
vt 0.9921 0.9924
vt 0.9912 0.0088
vt 0.0050 0.0082
vt 0.0030 0.9918
vt 0.9989 0.0688
vt -0.0058 0.0688
vt 0.0001 0.0044
vt 0.9989 0.0044
vt 0.3327 0.9999
vt 0.0001 0.9999
vt 0.0001 0.0001
vt 0.3327 0.0001
vn -1.0000 0.0000 0.0000
vn 0.0000 -1.0000 0.0000
vn 0.0000 0.0000 -1.0000
vn 1.0000 0.0000 0.0000
vn 0.0000 0.0000 1.0000
vn 0.0000 1.0000 0.0000
usemtl None
s off
f 93/115/59 95/116/59 94/117/59 92/118/59
f 103/119/60 101/120/60 98/121/60 96/122/60
f 92/118/60 94/117/60 101/120/60 103/119/60
usemtl None_tabletop.jpeg
f 100/123/61 99/124/61 98/125/61 101/126/61
f 99/127/62 97/128/62 96/129/62 98/130/62
f 102/131/63 93/132/63 92/133/63 103/134/63
f 102/135/64 100/136/64 95/137/64 93/138/64
f 97/139/64 99/140/64 100/141/64 102/142/64
f 97/143/63 102/144/63 103/145/63 96/146/63
f 95/147/61 100/148/61 101/149/61 94/150/61
